<?xml version="1.0" standalone="no"?>
<!DOCTYPE svg PUBLIC "-//W3C//DTD SVG 1.1//EN" "http://www.w3.org/Graphics/SVG/1.1/DTD/svg11.dtd" >
<svg xmlns="http://www.w3.org/2000/svg" xmlns:xlink="http://www.w3.org/1999/xlink" version="1.1">
<metadata>
Created by FontForge 20180930 at Mon Oct  8 19:12:18 2018
 By root
Made by 629Fonts. 2017. All Rights Reserved
</metadata>
<defs>
<font id="XBold" horiz-adv-x="304" >
  <font-face 
    font-family="XBold"
    font-weight="400"
    font-stretch="normal"
    units-per-em="2048"
    panose-1="2 0 5 0 0 0 0 0 0 0"
    ascent="1638"
    descent="-410"
    x-height="1434"
    cap-height="1482"
    bbox="110 -400 2273 1482"
    underline-thickness="150"
    underline-position="-442"
    unicode-range="U+0020-2122"
  />
    <missing-glyph />
    <glyph glyph-name="space" unicode=" " horiz-adv-x="701" 
 />
    <glyph glyph-name="space" unicode="&#xa0;" horiz-adv-x="701" 
 />
    <glyph glyph-name="exclam" unicode="!" 
 />
    <glyph glyph-name="quotedbl" unicode="&#x22;" 
 />
    <glyph glyph-name="numbersign" unicode="#" 
 />
    <glyph glyph-name="dollar" unicode="$" 
 />
    <glyph glyph-name="percent" unicode="%" 
 />
    <glyph glyph-name="ampersand" unicode="&#x26;" 
 />
    <glyph glyph-name="quotesingle" unicode="'" 
 />
    <glyph glyph-name="parenleft" unicode="(" 
 />
    <glyph glyph-name="parenright" unicode=")" 
 />
    <glyph glyph-name="asterisk" unicode="*" horiz-adv-x="1901" 
d="M495 1285q93 -54 227 -115q112 -50 225 -99q324 140 480 233q104 60 174 119q-335 -413 -455 -541q168 -278 268 -423q159 -233 351 -448q-86 60 -163 117q-365 273 -655 565q-293 -329 -649 -581q-74 -52 -165 -112q99 101 221 267q190 253 396 614l-193 212
q-129 146 -175 204q-54 66 -105 137q89 -77 218 -149z" />
    <glyph glyph-name="plus" unicode="+" 
 />
    <glyph glyph-name="comma" unicode="," 
 />
    <glyph glyph-name="hyphen" unicode="-" 
 />
    <glyph glyph-name="hyphen" unicode="&#xad;" 
 />
    <glyph glyph-name="period" unicode="." 
 />
    <glyph glyph-name="slash" unicode="/" 
 />
    <glyph glyph-name="zero" unicode="0" horiz-adv-x="2106" 
d="M1959 717q0 -393 -244 -717h-1316q-251 320 -251 717t251 717h1316q244 -324 244 -717zM1722 717q0 256 -136 480h-1062q-136 -224 -136 -480q0 -250 136 -484h1062q136 247 136 484z" />
    <glyph glyph-name="one" unicode="1" horiz-adv-x="1793" 
d="M1044 1434v-1197h607v-237h-1450v237h606v960h-536l-129 237h902z" />
    <glyph glyph-name="two" unicode="2" horiz-adv-x="2007" 
d="M393 599q26 -180 128 -366h1232l-164 -233h-1197q-244 324 -244 717q0 60 6 118h1458q-25 190 -129 362h-1255l164 237h1216q251 -320 251 -717q0 -60 -6 -118h-1460z" />
    <glyph glyph-name="three" unicode="3" horiz-adv-x="1944" 
d="M142 1434h1416q204 -258 240 -602l-104 -56v-118l104 -59q-36 -335 -240 -599h-1416l129 233h1159q98 170 128 366h-981v236h981q-29 191 -128 362h-1159z" />
    <glyph glyph-name="four" unicode="4" horiz-adv-x="2010" 
d="M149 499v743l240 240v-747h1231v699h240v-1242l-240 -240v547h-1471z" />
    <glyph glyph-name="five" unicode="5" horiz-adv-x="2009" 
d="M150 1434h1467l164 -237h-1394v-362h1468q6 -58 6 -118q0 -393 -244 -717h-1297l-164 233h1332q102 186 128 366h-1466v835z" />
    <glyph glyph-name="six" unicode="6" horiz-adv-x="2107" 
d="M396 599q24 -188 128 -366h1062q102 186 128 366h-1318zM1953 835q6 -58 6 -118q0 -393 -244 -717h-1316q-251 320 -251 717t251 717h1316l-129 -237h-1062q-104 -172 -129 -362h1558z" />
    <glyph glyph-name="seven" unicode="7" horiz-adv-x="2051" 
d="M1523 1197h-1252l-129 237h1767l-765 -1434h-257z" />
    <glyph glyph-name="eight" unicode="8" horiz-adv-x="2190" 
d="M387 599q30 -196 128 -366h1161q98 170 128 366h-1417zM1804 1434q204 -258 240 -602l-104 -56v-118l104 -59q-36 -335 -240 -599h-1417q-204 264 -240 599l104 59v118l-104 56q36 344 240 602h1417zM1804 835q-29 191 -128 362h-1161q-99 -171 -128 -362h1417z" />
    <glyph glyph-name="nine" unicode="9" horiz-adv-x="2106" 
d="M1715 835q-25 190 -129 362h-1062q-104 -172 -129 -362h1320zM154 599q-6 58 -6 118q0 397 251 717h1316q244 -324 244 -717t-244 -717h-1316l125 233h1062q102 186 128 366h-1560z" />
    <glyph glyph-name="colon" unicode=":" 
 />
    <glyph glyph-name="semicolon" unicode=";" 
 />
    <glyph glyph-name="semicolon" unicode="&#x37e;" 
 />
    <glyph glyph-name="less" unicode="&#x3c;" 
 />
    <glyph glyph-name="equal" unicode="=" 
 />
    <glyph glyph-name="greater" unicode="&#x3e;" 
 />
    <glyph glyph-name="question" unicode="?" 
 />
    <glyph glyph-name="at" unicode="@" 
 />
    <glyph glyph-name="A" unicode="A" horiz-adv-x="2291" 
d="M585 299l-188 -299h-287l901 1434h274l894 -1434h-282l-186 299h-1126zM1563 535l-413 663l-417 -663h830z" />
    <glyph glyph-name="B" unicode="B" horiz-adv-x="2385" 
d="M2149 658l104 -59q-36 -335 -240 -599h-1416q-210 264 -240 599h-230v236h230q31 340 240 599h1416q204 -258 240 -602l-104 -56v-118zM726 1197q-98 -159 -129 -362h1416q-29 191 -128 362h-1159zM597 599q32 -208 129 -366h1159q98 170 128 366h-1416z" />
    <glyph glyph-name="C" unicode="C" horiz-adv-x="1918" 
d="M1795 0h-1416q-251 320 -251 717t251 717h1416l-129 -237h-1162q-136 -224 -136 -480q0 -250 136 -484h1162z" />
    <glyph glyph-name="D" unicode="D" horiz-adv-x="2058" 
d="M385 233h1162q136 247 136 484q0 256 -136 480h-1162v-964zM148 1434h1528q244 -324 244 -717t-244 -717h-1528v1434z" />
    <glyph glyph-name="E" unicode="E" horiz-adv-x="2135" 
d="M2013 0h-1416q-210 264 -240 599h-230v236h230q31 340 240 599h1416l-128 -237h-1159q-98 -159 -129 -362h981v-236h-981q32 -208 129 -366h1159z" />
    <glyph glyph-name="F" unicode="F" horiz-adv-x="2124" 
d="M357 599h-230v236h230q31 340 240 599h1416l-128 -237h-1159q-98 -159 -129 -362h981v-236h-984v-599h-237v599z" />
    <glyph glyph-name="G" unicode="G" horiz-adv-x="2078" 
d="M1933 835q6 -58 6 -118q0 -393 -244 -717h-1316q-251 320 -251 717t251 717h1316l-129 -237h-1062q-136 -224 -136 -480q0 -250 136 -484h1062q102 186 128 366h-882v236h1121z" />
    <glyph glyph-name="H" unicode="H" horiz-adv-x="2000" 
d="M1612 835v599h240v-1242l-240 -240v647h-1231v-599h-240v1242l240 240v-647h1231z" />
    <glyph glyph-name="I" unicode="I" horiz-adv-x="530" 
d="M378 0h-237v1242l237 240v-1482z" />
    <glyph glyph-name="J" unicode="J" horiz-adv-x="1727" 
d="M1580 1434v-717q0 -397 -251 -717h-1216l129 233h962q136 234 136 484v717h240z" />
    <glyph glyph-name="K" unicode="K" horiz-adv-x="1966" 
d="M724 599h-343v-599h-240v1242l240 240v-647h343l738 599h390l-884 -717l884 -717h-390z" />
    <glyph glyph-name="L" unicode="L" horiz-adv-x="1710" 
d="M1431 233l164 -233h-1454v1229l240 240v-1236h1050z" />
    <glyph glyph-name="M" unicode="M" horiz-adv-x="2093" 
d="M1697 1434q251 -320 251 -817v-617h-240v617q0 350 -136 584h-411v-1009l-237 -240v1249h-414q-136 -247 -136 -584v-617h-237v617q0 493 244 817h1316z" />
    <glyph glyph-name="N" unicode="N" horiz-adv-x="2100" 
d="M381 1162v-1162h-240v1242l240 240l1331 -1210v1162h240v-1242l-240 -240z" />
    <glyph glyph-name="O" unicode="O" horiz-adv-x="2177" 
d="M2039 717q0 -393 -244 -717h-1416q-251 320 -251 717t251 717h1416q244 -324 244 -717zM1802 717q0 256 -136 480h-1162q-136 -224 -136 -480q0 -250 136 -484h1162q136 247 136 484z" />
    <glyph glyph-name="P" unicode="P" horiz-adv-x="2291" 
d="M593 835h1319q-29 191 -128 362h-1191v-362zM593 599v-599h-237v599h-230v236h230v599h1556q240 -308 240 -835h-1559z" />
    <glyph glyph-name="Q" unicode="Q" horiz-adv-x="2177" 
d="M1202 233h464q136 247 136 484q0 256 -136 480h-1162q-136 -224 -136 -480q0 -250 136 -484h461v249h237v-249zM965 0h-586q-251 320 -251 717t251 717h1416q244 -324 244 -717t-244 -717h-593v-160l-237 -240v400z" />
    <glyph glyph-name="R" unicode="R" horiz-adv-x="2192" 
d="M593 835h1219q-29 191 -128 362h-1091v-362zM1815 599h-1222v-599h-237v599h-230v236h230v599h1456q204 -258 240 -602l-104 -56v-118l104 -59v-599h-237v599z" />
    <glyph glyph-name="S" unicode="S" horiz-adv-x="2077" 
d="M134 599q-6 58 -6 118q0 397 251 717h1316l164 -237h-1355q-104 -172 -129 -362h1558q6 -58 6 -118q0 -393 -244 -717h-1297l-164 233h1332q102 186 128 366h-1560z" />
    <glyph glyph-name="T" unicode="T" horiz-adv-x="1997" 
d="M885 1197h-636l-129 237h1767l-129 -237h-636v-1197h-237v1197z" />
    <glyph glyph-name="U" unicode="U" horiz-adv-x="2099" 
d="M382 1434v-617q0 -350 136 -584h1062q136 247 136 584v617h237v-617q0 -493 -244 -817h-1316q-251 320 -251 817v617h240z" />
    <glyph glyph-name="V" unicode="V" horiz-adv-x="2295" 
d="M1157 236l747 1198h282l-894 -1434h-274l-901 1434h287z" />
    <glyph glyph-name="W" unicode="W" horiz-adv-x="2099" 
d="M393 0q-251 320 -251 817v617h240v-617q0 -350 136 -584h411v1009l237 240v-1249h414q136 247 136 584v617h237v-617q0 -493 -244 -817h-1316z" />
    <glyph glyph-name="X" unicode="X" horiz-adv-x="2387" 
d="M1389 717l884 -717h-390l-689 564l-692 -564h-383l881 717l-881 717h383l692 -560l689 560h390z" />
    <glyph glyph-name="Y" unicode="Y" horiz-adv-x="2070" 
d="M918 500h-536q-251 320 -251 777v157h240v-157q0 -310 136 -544h1062q136 247 136 544v157h237v-157q0 -453 -244 -777h-543v-308l-237 -240v548z" />
    <glyph glyph-name="Z" unicode="Z" horiz-adv-x="1924" 
d="M1796 1434v-237l-1251 -960h1122l129 -237h-1667v237l1251 960h-1122l-129 237h1667z" />
    <glyph glyph-name="bracketleft" unicode="[" 
 />
    <glyph glyph-name="backslash" unicode="\" 
 />
    <glyph glyph-name="bracketright" unicode="]" 
 />
    <glyph glyph-name="asciicircum" unicode="^" 
 />
    <glyph glyph-name="underscore" unicode="_" 
 />
    <glyph glyph-name="grave" unicode="`" 
 />
    <glyph glyph-name="a" unicode="a" horiz-adv-x="2291" 
d="M585 299l-188 -299h-287l901 1434h274l894 -1434h-282l-186 299h-1126zM1563 535l-413 663l-417 -663h830z" />
    <glyph glyph-name="b" unicode="b" horiz-adv-x="2385" 
d="M2149 658l104 -59q-36 -335 -240 -599h-1416q-210 264 -240 599h-230v236h230q31 340 240 599h1416q204 -258 240 -602l-104 -56v-118zM726 1197q-98 -159 -129 -362h1416q-29 191 -128 362h-1159zM597 599q32 -208 129 -366h1159q98 170 128 366h-1416z" />
    <glyph glyph-name="c" unicode="c" horiz-adv-x="1918" 
d="M1795 0h-1416q-251 320 -251 717t251 717h1416l-129 -237h-1162q-136 -224 -136 -480q0 -250 136 -484h1162z" />
    <glyph glyph-name="d" unicode="d" horiz-adv-x="2058" 
d="M385 233h1162q136 247 136 484q0 256 -136 480h-1162v-964zM148 1434h1528q244 -324 244 -717t-244 -717h-1528v1434z" />
    <glyph glyph-name="e" unicode="e" horiz-adv-x="2135" 
d="M2013 0h-1416q-210 264 -240 599h-230v236h230q31 340 240 599h1416l-128 -237h-1159q-98 -159 -129 -362h981v-236h-981q32 -208 129 -366h1159z" />
    <glyph glyph-name="f" unicode="f" horiz-adv-x="2124" 
d="M357 599h-230v236h230q31 340 240 599h1416l-128 -237h-1159q-98 -159 -129 -362h981v-236h-984v-599h-237v599z" />
    <glyph glyph-name="g" unicode="g" horiz-adv-x="2078" 
d="M1933 835q6 -58 6 -118q0 -393 -244 -717h-1316q-251 320 -251 717t251 717h1316l-129 -237h-1062q-136 -224 -136 -480q0 -250 136 -484h1062q102 186 128 366h-882v236h1121z" />
    <glyph glyph-name="h" unicode="h" horiz-adv-x="2000" 
d="M1612 835v599h240v-1242l-240 -240v647h-1231v-599h-240v1242l240 240v-647h1231z" />
    <glyph glyph-name="i" unicode="i" horiz-adv-x="530" 
d="M378 0h-237v1242l237 240v-1482z" />
    <glyph glyph-name="j" unicode="j" horiz-adv-x="1727" 
d="M1580 1434v-717q0 -397 -251 -717h-1216l129 233h962q136 234 136 484v717h240z" />
    <glyph glyph-name="k" unicode="k" horiz-adv-x="1966" 
d="M724 599h-343v-599h-240v1242l240 240v-647h343l738 599h390l-884 -717l884 -717h-390z" />
    <glyph glyph-name="l" unicode="l" horiz-adv-x="1710" 
d="M1431 233l164 -233h-1454v1229l240 240v-1236h1050z" />
    <glyph glyph-name="m" unicode="m" horiz-adv-x="2093" 
d="M1697 1434q251 -320 251 -817v-617h-240v617q0 350 -136 584h-411v-1009l-237 -240v1249h-414q-136 -247 -136 -584v-617h-237v617q0 493 244 817h1316z" />
    <glyph glyph-name="n" unicode="n" horiz-adv-x="2100" 
d="M381 1162v-1162h-240v1242l240 240l1331 -1210v1162h240v-1242l-240 -240z" />
    <glyph glyph-name="o" unicode="o" horiz-adv-x="2177" 
d="M2039 717q0 -393 -244 -717h-1416q-251 320 -251 717t251 717h1416q244 -324 244 -717zM1802 717q0 256 -136 480h-1162q-136 -224 -136 -480q0 -250 136 -484h1162q136 247 136 484z" />
    <glyph glyph-name="p" unicode="p" horiz-adv-x="2291" 
d="M593 835h1319q-29 191 -128 362h-1191v-362zM593 599v-599h-237v599h-230v236h230v599h1556q240 -308 240 -835h-1559z" />
    <glyph glyph-name="q" unicode="q" horiz-adv-x="2177" 
d="M1202 233h464q136 247 136 484q0 256 -136 480h-1162q-136 -224 -136 -480q0 -250 136 -484h461v249h237v-249zM965 0h-586q-251 320 -251 717t251 717h1416q244 -324 244 -717t-244 -717h-593v-160l-237 -240v400z" />
    <glyph glyph-name="r" unicode="r" horiz-adv-x="2192" 
d="M593 835h1219q-29 191 -128 362h-1091v-362zM1815 599h-1222v-599h-237v599h-230v236h230v599h1456q204 -258 240 -602l-104 -56v-118l104 -59v-599h-237v599z" />
    <glyph glyph-name="s" unicode="s" horiz-adv-x="2077" 
d="M134 599q-6 58 -6 118q0 397 251 717h1316l164 -237h-1355q-104 -172 -129 -362h1558q6 -58 6 -118q0 -393 -244 -717h-1297l-164 233h1332q102 186 128 366h-1560z" />
    <glyph glyph-name="t" unicode="t" horiz-adv-x="1997" 
d="M885 1197h-636l-129 237h1767l-129 -237h-636v-1197h-237v1197z" />
    <glyph glyph-name="u" unicode="u" horiz-adv-x="2099" 
d="M382 1434v-617q0 -350 136 -584h1062q136 247 136 584v617h237v-617q0 -493 -244 -817h-1316q-251 320 -251 817v617h240z" />
    <glyph glyph-name="v" unicode="v" horiz-adv-x="2295" 
d="M1157 236l747 1198h282l-894 -1434h-274l-901 1434h287z" />
    <glyph glyph-name="w" unicode="w" horiz-adv-x="2099" 
d="M393 0q-251 320 -251 817v617h240v-617q0 -350 136 -584h411v1009l237 240v-1249h414q136 247 136 584v617h237v-617q0 -493 -244 -817h-1316z" />
    <glyph glyph-name="x" unicode="x" horiz-adv-x="2387" 
d="M1389 717l884 -717h-390l-689 564l-692 -564h-383l881 717l-881 717h383l692 -560l689 560h390z" />
    <glyph glyph-name="y" unicode="y" horiz-adv-x="2070" 
d="M918 500h-536q-251 320 -251 777v157h240v-157q0 -310 136 -544h1062q136 247 136 544v157h237v-157q0 -453 -244 -777h-543v-308l-237 -240v548z" />
    <glyph glyph-name="z" unicode="z" horiz-adv-x="1924" 
d="M1796 1434v-237l-1251 -960h1122l129 -237h-1667v237l1251 960h-1122l-129 237h1667z" />
    <glyph glyph-name="braceleft" unicode="{" 
 />
    <glyph glyph-name="bar" unicode="|" 
 />
    <glyph glyph-name="braceright" unicode="}" 
 />
    <glyph glyph-name="asciitilde" unicode="~" 
 />
    <glyph glyph-name="exclamdown" unicode="&#xa1;" 
 />
    <glyph glyph-name="cent" unicode="&#xa2;" 
 />
    <glyph glyph-name="sterling" unicode="&#xa3;" 
 />
    <glyph glyph-name="currency" unicode="&#xa4;" 
 />
    <glyph glyph-name="yen" unicode="&#xa5;" 
 />
    <glyph glyph-name="brokenbar" unicode="&#xa6;" 
 />
    <glyph glyph-name="section" unicode="&#xa7;" 
 />
    <glyph glyph-name="dieresis" unicode="&#xa8;" 
 />
    <glyph glyph-name="copyright" unicode="&#xa9;" 
 />
    <glyph glyph-name="ordfeminine" unicode="&#xaa;" 
 />
    <glyph glyph-name="guillemotleft" unicode="&#xab;" 
 />
    <glyph glyph-name="logicalnot" unicode="&#xac;" 
 />
    <glyph glyph-name="registered" unicode="&#xae;" 
 />
    <glyph glyph-name="macron" unicode="&#xaf;" 
 />
    <glyph glyph-name="degree" unicode="&#xb0;" 
 />
    <glyph glyph-name="plusminus" unicode="&#xb1;" 
 />
    <glyph glyph-name="uni00B2" unicode="&#xb2;" 
 />
    <glyph glyph-name="uni00B3" unicode="&#xb3;" 
 />
    <glyph glyph-name="acute" unicode="&#xb4;" 
 />
    <glyph glyph-name="mu" unicode="&#xb5;" 
 />
    <glyph glyph-name="paragraph" unicode="&#xb6;" 
 />
    <glyph glyph-name="periodcentered" unicode="&#xb7;" 
 />
    <glyph glyph-name="periodcentered" unicode="&#x2219;" 
 />
    <glyph glyph-name="cedilla" unicode="&#xb8;" 
 />
    <glyph glyph-name="uni00B9" unicode="&#xb9;" 
 />
    <glyph glyph-name="ordmasculine" unicode="&#xba;" 
 />
    <glyph glyph-name="guillemotright" unicode="&#xbb;" 
 />
    <glyph glyph-name="onequarter" unicode="&#xbc;" 
 />
    <glyph glyph-name="onehalf" unicode="&#xbd;" 
 />
    <glyph glyph-name="threequarters" unicode="&#xbe;" 
 />
    <glyph glyph-name="questiondown" unicode="&#xbf;" 
 />
    <glyph glyph-name="Agrave" unicode="&#xc0;" horiz-adv-x="323" 
 />
    <glyph glyph-name="Aacute" unicode="&#xc1;" horiz-adv-x="323" 
 />
    <glyph glyph-name="Acircumflex" unicode="&#xc2;" horiz-adv-x="323" 
 />
    <glyph glyph-name="Atilde" unicode="&#xc3;" horiz-adv-x="323" 
 />
    <glyph glyph-name="Adieresis" unicode="&#xc4;" horiz-adv-x="323" 
 />
    <glyph glyph-name="Aring" unicode="&#xc5;" horiz-adv-x="323" 
 />
    <glyph glyph-name="AE" unicode="&#xc6;" horiz-adv-x="323" 
 />
    <glyph glyph-name="Ccedilla" unicode="&#xc7;" horiz-adv-x="323" 
 />
    <glyph glyph-name="Egrave" unicode="&#xc8;" horiz-adv-x="323" 
 />
    <glyph glyph-name="Eacute" unicode="&#xc9;" horiz-adv-x="323" 
 />
    <glyph glyph-name="Ecircumflex" unicode="&#xca;" horiz-adv-x="323" 
 />
    <glyph glyph-name="Edieresis" unicode="&#xcb;" horiz-adv-x="323" 
 />
    <glyph glyph-name="Igrave" unicode="&#xcc;" horiz-adv-x="323" 
 />
    <glyph glyph-name="Iacute" unicode="&#xcd;" horiz-adv-x="323" 
 />
    <glyph glyph-name="Icircumflex" unicode="&#xce;" horiz-adv-x="323" 
 />
    <glyph glyph-name="Idieresis" unicode="&#xcf;" horiz-adv-x="323" 
 />
    <glyph glyph-name="Eth" unicode="&#xd0;" horiz-adv-x="323" 
 />
    <glyph glyph-name="Ntilde" unicode="&#xd1;" horiz-adv-x="323" 
 />
    <glyph glyph-name="Ograve" unicode="&#xd2;" horiz-adv-x="323" 
 />
    <glyph glyph-name="Oacute" unicode="&#xd3;" horiz-adv-x="323" 
 />
    <glyph glyph-name="Ocircumflex" unicode="&#xd4;" horiz-adv-x="323" 
 />
    <glyph glyph-name="Otilde" unicode="&#xd5;" horiz-adv-x="323" 
 />
    <glyph glyph-name="Odieresis" unicode="&#xd6;" horiz-adv-x="323" 
 />
    <glyph glyph-name="multiply" unicode="&#xd7;" horiz-adv-x="323" 
 />
    <glyph glyph-name="Oslash" unicode="&#xd8;" horiz-adv-x="323" 
 />
    <glyph glyph-name="Ugrave" unicode="&#xd9;" horiz-adv-x="323" 
 />
    <glyph glyph-name="Uacute" unicode="&#xda;" horiz-adv-x="323" 
 />
    <glyph glyph-name="Ucircumflex" unicode="&#xdb;" horiz-adv-x="323" 
 />
    <glyph glyph-name="Udieresis" unicode="&#xdc;" horiz-adv-x="323" 
 />
    <glyph glyph-name="Yacute" unicode="&#xdd;" horiz-adv-x="323" 
 />
    <glyph glyph-name="Thorn" unicode="&#xde;" horiz-adv-x="323" 
 />
    <glyph glyph-name="germandbls" unicode="&#xdf;" horiz-adv-x="323" 
 />
    <glyph glyph-name="agrave" unicode="&#xe0;" horiz-adv-x="323" 
 />
    <glyph glyph-name="aacute" unicode="&#xe1;" horiz-adv-x="323" 
 />
    <glyph glyph-name="acircumflex" unicode="&#xe2;" horiz-adv-x="323" 
 />
    <glyph glyph-name="atilde" unicode="&#xe3;" horiz-adv-x="323" 
 />
    <glyph glyph-name="adieresis" unicode="&#xe4;" horiz-adv-x="323" 
 />
    <glyph glyph-name="aring" unicode="&#xe5;" horiz-adv-x="323" 
 />
    <glyph glyph-name="ae" unicode="&#xe6;" horiz-adv-x="323" 
 />
    <glyph glyph-name="ccedilla" unicode="&#xe7;" horiz-adv-x="323" 
 />
    <glyph glyph-name="egrave" unicode="&#xe8;" horiz-adv-x="323" 
 />
    <glyph glyph-name="eacute" unicode="&#xe9;" horiz-adv-x="323" 
 />
    <glyph glyph-name="ecircumflex" unicode="&#xea;" horiz-adv-x="323" 
 />
    <glyph glyph-name="edieresis" unicode="&#xeb;" horiz-adv-x="323" 
 />
    <glyph glyph-name="igrave" unicode="&#xec;" horiz-adv-x="323" 
 />
    <glyph glyph-name="iacute" unicode="&#xed;" horiz-adv-x="323" 
 />
    <glyph glyph-name="icircumflex" unicode="&#xee;" horiz-adv-x="323" 
 />
    <glyph glyph-name="idieresis" unicode="&#xef;" horiz-adv-x="323" 
 />
    <glyph glyph-name="eth" unicode="&#xf0;" horiz-adv-x="323" 
 />
    <glyph glyph-name="ntilde" unicode="&#xf1;" horiz-adv-x="323" 
 />
    <glyph glyph-name="ograve" unicode="&#xf2;" horiz-adv-x="323" 
 />
    <glyph glyph-name="oacute" unicode="&#xf3;" horiz-adv-x="323" 
 />
    <glyph glyph-name="ocircumflex" unicode="&#xf4;" horiz-adv-x="323" 
 />
    <glyph glyph-name="otilde" unicode="&#xf5;" horiz-adv-x="323" 
 />
    <glyph glyph-name="odieresis" unicode="&#xf6;" horiz-adv-x="323" 
 />
    <glyph glyph-name="divide" unicode="&#xf7;" horiz-adv-x="323" 
 />
    <glyph glyph-name="oslash" unicode="&#xf8;" horiz-adv-x="323" 
 />
    <glyph glyph-name="ugrave" unicode="&#xf9;" horiz-adv-x="323" 
 />
    <glyph glyph-name="uacute" unicode="&#xfa;" horiz-adv-x="323" 
 />
    <glyph glyph-name="ucircumflex" unicode="&#xfb;" horiz-adv-x="323" 
 />
    <glyph glyph-name="udieresis" unicode="&#xfc;" horiz-adv-x="323" 
 />
    <glyph glyph-name="yacute" unicode="&#xfd;" horiz-adv-x="323" 
 />
    <glyph glyph-name="thorn" unicode="&#xfe;" horiz-adv-x="323" 
 />
    <glyph glyph-name="ydieresis" unicode="&#xff;" horiz-adv-x="323" 
 />
    <glyph glyph-name="circumflex" unicode="&#x2c6;" 
 />
    <glyph glyph-name="tilde" unicode="&#x2dc;" 
 />
    <glyph glyph-name="endash" unicode="&#x2013;" 
 />
    <glyph glyph-name="emdash" unicode="&#x2014;" 
 />
    <glyph glyph-name="quoteleft" unicode="&#x2018;" 
 />
    <glyph glyph-name="quoteright" unicode="&#x2019;" 
 />
    <glyph glyph-name="quotesinglbase" unicode="&#x201a;" 
 />
    <glyph glyph-name="quotedblleft" unicode="&#x201c;" 
 />
    <glyph glyph-name="quotedblright" unicode="&#x201d;" 
 />
    <glyph glyph-name="quotedblbase" unicode="&#x201e;" 
 />
    <glyph glyph-name="dagger" unicode="&#x2020;" 
 />
    <glyph glyph-name="daggerdbl" unicode="&#x2021;" 
 />
    <glyph glyph-name="bullet" unicode="&#x2022;" 
 />
    <glyph glyph-name="ellipsis" unicode="&#x2026;" 
 />
    <glyph glyph-name="guilsinglleft" unicode="&#x2039;" 
 />
    <glyph glyph-name="guilsinglright" unicode="&#x203a;" 
 />
    <glyph glyph-name="Euro" unicode="&#x20ac;" 
 />
    <glyph glyph-name="trademark" unicode="&#x2122;" 
 />
  </font>
</defs>
</svg>
